# xmcd CD database file
# Copyright (C) 1995-1998 Ti Kan
#
# Track frame offsets:
#	150
#	15018
#	38682
#	60649
#	76828
#	92590
#	115367
#	127222
#	141850
#	154546
#	165583
#	174208
#	189760
#	205690
#	221118
#	246670
#	264230
#	295184
#	311410
#	330817
#
# Disc length: 4594 seconds
#
# Revision: 1
# Processed by: cddbd v1.4b41PL1 Copyright (c) Steve Scherf et al.
# Submitted via: CDex 1.30
#
DISCID=0211f014
DTITLE=B.B. King - 20 Golden Classics
DYEAR=2000
DGENRE=Blues
TTITLE0=B.B. Boogie
TTITLE1=You've Done Lost Your Good Thing Now
TTITLE2=The Thrill Is Gone
TTITLE3=It's My Own Fault Baby
TTITLE4=The Letter
TTITLE5=Every Day I Have The Blues
TTITLE6=Payin' The Cost To Be Your Boss
TTITLE7=Mr. Pawnbroker
TTITLE8=Please Love Me
TTITLE9=Catfish Blues
TTITLE10=A New Way Of Driving
TTITLE11=Walkin' And Cryin'
TTITLE12=Long Nights
TTITLE13=How Blue Can You Get
TTITLE14=Guess Who
TTITLE15=That Evil Child
TTITLE16=Outside Help
TTITLE17=The Other Night Blues
TTITLE18=Sweet Sixteen
TTITLE19=Save A Seat For Me
EXTD=YEAR: 2000  ID3G:   0
EXTT0=
EXTT1=
EXTT2=
EXTT3=
EXTT4=
EXTT5=
EXTT6=
EXTT7=
EXTT8=
EXTT9=
EXTT10=
EXTT11=
EXTT12=
EXTT13=
EXTT14=
EXTT15=
EXTT16=
EXTT17=
EXTT18=
EXTT19=
PLAYORDER=
